<?xml version="1.0" encoding="UTF-8"?>
<svg width="63px" height="48px" viewBox="0 0 63 48" version="1.1" xmlns="http://www.w3.org/2000/svg" xmlns:xlink="http://www.w3.org/1999/xlink">
    <!-- Generator: Sketch 46.2 (44496) - http://www.bohemiancoding.com/sketch -->
    <title>Combined Shape Copy 2</title>
    <desc>Created with Sketch.</desc>
    <defs>
        <linearGradient x1="50%" y1="0%" x2="50%" y2="95.1884536%" id="linearGradient-1">
            <stop stop-color="#F7C026" offset="0%"></stop>
            <stop stop-color="#FFDC4B" offset="100%"></stop>
        </linearGradient>
    </defs>
    <g id="担保购买" stroke="none" stroke-width="1" fill="none" fill-rule="evenodd">
        <g id="我" transform="translate(-250.000000, -882.000000)" fill="url(#linearGradient-1)">
            <path d="M313,921.349451 L313,922.087912 L313,922.193407 C312.789649,923.353846 311.948247,924.092308 310.791319,924.092308 L305.217028,924.092308 C304.796327,924.092308 304.796327,924.197802 304.691152,923.67033 C304.375626,921.349451 303.429048,919.450549 301.746244,917.868132 C299.853088,916.18022 297.644407,915.336264 295.015025,915.652747 C293.12187,915.863736 291.54424,916.707692 290.176962,917.973626 C288.494157,919.556044 287.547579,921.56044 287.337229,923.775824 C287.337229,923.986813 287.232053,924.092308 287.021703,924.092308 L276.609349,924.092308 L275.873122,924.092308 C275.662771,924.092308 275.557596,923.986813 275.557596,923.881319 C275.557596,923.67033 275.557596,923.564835 275.452421,923.353846 C275.03172,920.610989 273.559265,918.501099 271.350584,917.024176 C269.66778,915.969231 267.774624,915.441758 265.671119,915.758242 C263.462437,916.074725 261.779633,917.12967 260.412354,918.817582 C259.886477,919.450549 259.465776,920.189011 259.045075,920.821978 C258.414023,921.771429 257.993322,922.826374 257.782972,923.881319 C257.782972,924.092308 257.677796,924.197802 257.467446,924.197802 L254.312187,924.197802 C253.996661,924.197802 253.681135,924.092308 253.365609,923.881319 C252.944908,923.564835 252.734558,923.142857 252.629382,922.615385 C251.78798,918.501099 250.841402,914.386813 250,910.378022 L250,909.850549 C250.105175,909.428571 250.210351,909.006593 250.525876,908.69011 C250.841402,908.373626 251.051753,908.057143 251.262104,907.740659 C253.470785,904.786813 255.679466,901.832967 257.782972,898.879121 C259.15025,897.085714 260.517529,895.186813 261.779633,893.287912 C261.884808,893.076923 261.989983,892.971429 262.200334,892.865934 C262.621035,892.654945 263.041736,892.549451 263.462437,892.549451 L271.771285,892.549451 C272.086811,892.549451 272.086811,892.549451 272.086811,892.232967 L272.086811,886.21978 L272.086811,885.481319 C272.402337,883.371429 274.190317,882 275.978297,882 L306.689482,882 C307.951586,882 308.898164,882.527473 309.739566,883.476923 C310.370618,884.320879 310.580968,885.27033 310.580968,886.325275 L310.580968,909.428571 L310.580968,919.028571 C310.580968,919.345055 310.580968,919.345055 310.896494,919.345055 C311.632721,919.345055 312.158598,919.661538 312.579299,920.294505 C312.894825,920.610989 312.894825,921.032967 313,921.349451 L313,921.349451 Z M267.459098,902.993407 C267.459098,904.892308 267.459098,906.685714 267.459098,908.479121 C267.459098,908.795604 267.459098,908.795604 267.143573,908.795604 L256.205342,908.795604 C256.100167,908.795604 255.994992,908.901099 255.994992,908.795604 C255.994992,908.69011 256.100167,908.69011 256.100167,908.584615 C258.414023,904.892308 260.833055,901.2 263.252087,897.507692 C263.357262,897.296703 263.567613,897.191209 263.777963,897.191209 L267.143573,897.191209 C267.459098,897.191209 267.459098,897.191209 267.459098,897.507692 L267.459098,902.993407 Z M295.435726,930 C294.804674,929.894505 294.173623,929.683516 293.542571,929.367033 C291.54424,928.312088 290.492487,925.991209 290.913189,923.881319 C291.33389,921.56044 293.12187,919.872527 295.435726,919.556044 C298.275459,919.134066 301.010017,921.138462 301.430718,923.986813 C301.851419,926.940659 299.853088,929.578022 296.90818,930 L296.803005,930 C296.277129,930 295.856427,930 295.435726,930 Z M266.196995,930 C265.565943,929.894505 264.829716,929.683516 264.30384,929.367033 C262.410684,928.206593 261.464107,926.518681 261.569282,924.303297 C261.674457,921.876923 263.672788,919.872527 266.09182,919.556044 C268.931553,919.134066 271.560935,921.032967 272.086811,923.881319 C272.612688,926.835165 270.614357,929.578022 267.669449,930 L267.459098,930 L266.196995,930 Z" id="Combined-Shape-Copy-2" transform="translate(281.500000, 906.000000) scale(-1, 1) translate(-281.500000, -906.000000) "></path>
        </g>
    </g>
</svg>