<?xml version="1.0" encoding="UTF-8"?>
<svg width="16px" height="28px" viewBox="0 0 16 28" version="1.1" xmlns="http://www.w3.org/2000/svg" xmlns:xlink="http://www.w3.org/1999/xlink">
    <!-- Generator: Sketch 46.2 (44496) - http://www.bohemiancoding.com/sketch -->
    <title>ic_arrow_gray copy 2</title>
    <desc>Created with Sketch.</desc>
    <defs></defs>
    <g id="担保购买" stroke="none" stroke-width="1" fill="none" fill-rule="evenodd">
        <g id="未发货" transform="translate(-705.000000, -405.000000)" fill="#A9A9A9">
            <path d="M719.830414,419.824266 L719.830414,419.824491 L707.043107,432.611733 C706.828584,432.850075 706.51779,433 706.171913,433 C705.524673,433 705,432.475327 705,431.828119 C705,431.504515 705.13116,431.211521 705.343238,430.999444 L705.342304,430.99851 L717.347091,418.993756 L705.357818,407.004548 C705.355114,407.001844 705.352379,406.999108 705.349675,406.99634 L705.342304,406.989001 L705.342497,406.988808 C705.137147,406.777729 705.010428,406.489659 705.010428,406.171913 C705.010428,405.524673 705.535102,405 706.182342,405 C706.50012,405 706.788157,405.126654 706.999269,405.332069 L706.999301,405.332004 L707.001329,405.334032 C707.00767,405.340244 707.013882,405.346424 707.020061,405.352765 L719.83743,418.172483 C720.045806,418.384046 720.17452,418.674336 720.17452,418.994689 C720.17452,419.318808 720.042974,419.612124 719.830381,419.824266 L719.830414,419.824266 Z" id="ic_arrow_gray-copy-2" transform="translate(712.587260, 419.000000) scale(1, -1) translate(-712.587260, -419.000000) "></path>
        </g>
    </g>
</svg>