<?xml version="1.0" encoding="UTF-8"?>
<svg width="15px" height="28px" viewBox="0 0 15 28" version="1.1" xmlns="http://www.w3.org/2000/svg" xmlns:xlink="http://www.w3.org/1999/xlink">
    <!-- Generator: Sketch 46.2 (44496) - http://www.bohemiancoding.com/sketch -->
    <title>my arrow</title>
    <desc>Created with Sketch.</desc>
    <defs></defs>
    <g id="担保购买" stroke="none" stroke-width="1" fill="none" fill-rule="evenodd">
        <g id="我" transform="translate(-705.000000, -156.000000)" fill="#FFFFFF">
            <path d="M719.659851,170.824266 L719.659851,170.824491 L707.01961,183.611733 C706.807553,183.850075 706.500334,184 706.158435,184 C705.518639,184 705,183.475327 705,182.828119 C705,182.504515 705.129652,182.211521 705.33929,181.999444 L705.338367,181.99851 L717.205089,169.993756 L705.353703,158.004548 C705.35103,158.001844 705.348326,157.999108 705.345653,157.99634 L705.338367,157.989001 L705.338558,157.988808 C705.13557,157.777729 705.010309,157.489659 705.010309,157.171913 C705.010309,156.524673 705.528948,156 706.168744,156 C706.482867,156 706.767592,156.126654 706.976276,156.332069 L706.976307,156.332004 L706.978312,156.334032 C706.98458,156.340244 706.99072,156.346424 706.996829,156.352765 L719.666787,169.172483 C719.872766,169.384046 720,169.674336 720,169.994689 C720,170.318808 719.869966,170.612124 719.659819,170.824266 L719.659851,170.824266 Z" id="my-arrow" transform="translate(712.500000, 170.000000) scale(1, -1) translate(-712.500000, -170.000000) "></path>
        </g>
    </g>
</svg>